<svg width="35" height="35" viewBox="0 0 37 37" fill="none" xmlns="http://www.w3.org/2000/svg">
<g filter="url(#filter0_if_53:8)">
<path d="M18.5 36C28.165 36 36 28.165 36 18.5C36 8.83502 28.165 1 18.5 1C8.83501 1 1 8.83502 1 18.5C1 28.165 8.83501 36 18.5 36Z" fill="white"/>
<path opacity="0.2" d="M16.7787 8.45902C17.8878 8.45902 18.7869 7.55992 18.7869 6.45082C18.7869 5.34173 17.8878 4.44263 16.7787 4.44263C15.6696 4.44263 14.7705 5.34173 14.7705 6.45082C14.7705 7.55992 15.6696 8.45902 16.7787 8.45902Z" fill="black"/>
<path opacity="0.2" d="M20.2216 28.541C21.3307 28.541 22.2298 27.6419 22.2298 26.5328C22.2298 25.4237 21.3307 24.5246 20.2216 24.5246C19.1125 24.5246 18.2134 25.4237 18.2134 26.5328C18.2134 27.6419 19.1125 28.541 20.2216 28.541Z" fill="black"/>
<path opacity="0.2" d="M27.9671 16.7787C28.7593 16.7787 29.4016 16.1365 29.4016 15.3443C29.4016 14.5521 28.7593 13.9099 27.9671 13.9099C27.1749 13.9099 26.5327 14.5521 26.5327 15.3443C26.5327 16.1365 27.1749 16.7787 27.9671 16.7787Z" fill="black"/>
<path opacity="0.2" d="M11.6146 24.5246C14.1496 24.5246 16.2047 22.4695 16.2047 19.9344C16.2047 17.3994 14.1496 15.3443 11.6146 15.3443C9.0795 15.3443 7.02441 17.3994 7.02441 19.9344C7.02441 22.4695 9.0795 24.5246 11.6146 24.5246Z" fill="black"/>
</g>
<defs>
<filter id="filter0_if_53:8" x="0" y="0" width="41" height="41" filterUnits="userSpaceOnUse" color-interpolation-filters="sRGB">
<feFlood flood-opacity="0" result="BackgroundImageFix"/>
<feBlend mode="normal" in="SourceGraphic" in2="BackgroundImageFix" result="shape"/>
<feColorMatrix in="SourceAlpha" type="matrix" values="0 0 0 0 0 0 0 0 0 0 0 0 0 0 0 0 0 0 127 0" result="hardAlpha"/>
<feOffset dx="5" dy="5"/>
<feGaussianBlur stdDeviation="3.5"/>
<feComposite in2="hardAlpha" operator="arithmetic" k2="-1" k3="1"/>
<feColorMatrix type="matrix" values="0 0 0 0 0 0 0 0 0 0 0 0 0 0 0 0 0 0 0.28 0"/>
<feBlend mode="normal" in2="shape" result="effect1_innerShadow_53:8"/>
<feGaussianBlur stdDeviation="0.5" result="effect2_foregroundBlur_53:8"/>
</filter>
</defs>
</svg>
