<svg width="214" height="50" viewBox="0 0 214 50" fill="none" xmlns="http://www.w3.org/2000/svg">
<path d="M33.6328 5.48828H40.4766C42.4375 5.48828 43.9219 5.8125 44.9297 6.46094C45.9375 7.10156 46.4414 8.05078 46.4414 9.30859C46.4414 10.3789 46.1172 11.2578 45.4688 11.9453C44.8281 12.625 43.8867 13.0938 42.6445 13.3516C43.707 13.5312 44.5352 13.9453 45.1289 14.5938C45.7305 15.2344 46.0312 16.0195 46.0312 16.9492C46.0312 18.5977 45.418 19.8516 44.1914 20.7109C42.9727 21.5703 41.1367 22 38.6836 22H30.4219L33.6328 5.48828ZM35.7891 12.1445H39.2344C40.6016 12.1445 41.5703 11.9648 42.1406 11.6055C42.7188 11.2461 43.0078 10.6562 43.0078 9.83594C43.0078 9.21094 42.7852 8.75781 42.3398 8.47656C41.8945 8.19531 41.1484 8.05469 40.1016 8.05469H36.5742L35.7891 12.1445ZM34.3711 19.4336H38.2148C39.8477 19.4336 40.9805 19.2383 41.6133 18.8477C42.2461 18.4492 42.5625 17.793 42.5625 16.8789C42.5625 16.1758 42.2969 15.6367 41.7656 15.2617C41.2344 14.8867 40.3672 14.6992 39.1641 14.6992H35.2969L34.3711 19.4336Z" fill="white"/>
<path d="M57.2344 12.0039C56.6953 11.8867 56.25 11.8281 55.8984 11.8281C54.9375 11.8281 54.1523 12.168 53.543 12.8477C52.9414 13.5273 52.5039 14.5703 52.2305 15.9766L51.0469 22H47.7539L49.6406 12.2734C49.8281 11.3359 49.9922 10.3516 50.1328 9.32031H53.2734L53.0156 11.3359L52.9219 11.9102H52.9688C53.5391 10.8633 54.1016 10.1328 54.6562 9.71875C55.2109 9.29688 55.8477 9.08594 56.5664 9.08594C56.9336 9.08594 57.3359 9.14062 57.7734 9.25L57.2344 12.0039Z" fill="white"/>
<path d="M57.1055 22L59.5664 9.32031H62.8594L60.3867 22H57.1055Z" fill="white"/>
<path d="M72.0234 22L73.4062 15.0273C73.6094 14.0586 73.7109 13.4141 73.7109 13.0938C73.7109 12.0859 73.1172 11.582 71.9297 11.582C71.1406 11.582 70.4102 11.9023 69.7383 12.543C69.0664 13.1836 68.6445 13.9688 68.4727 14.8984L67.0898 22H63.7852L65.7305 12.0273C65.8555 11.4102 66.0039 10.5078 66.1758 9.32031H69.3164C69.3164 9.39062 69.2773 9.71875 69.1992 10.3047C69.1289 10.8906 69.0742 11.2852 69.0352 11.4883H69.0703C69.6562 10.6758 70.3008 10.0742 71.0039 9.68359C71.7148 9.29297 72.5273 9.09766 73.4414 9.09766C74.6289 9.09766 75.5234 9.38281 76.125 9.95312C76.7266 10.5234 77.0273 11.3477 77.0273 12.4258C77.0273 12.6211 77 12.9336 76.9453 13.3633C76.8906 13.7852 76.8359 14.1133 76.7812 14.3477L75.293 22H72.0234Z" fill="white"/>
<path d="M83.0977 26.9805C81.543 26.9805 80.3477 26.7109 79.5117 26.1719C78.6758 25.6328 78.1602 24.7969 77.9648 23.6641L81.2812 23.3125C81.4922 24.3047 82.2266 24.8008 83.4844 24.8008C84.3438 24.8008 85.0117 24.5703 85.4883 24.1094C85.9648 23.6484 86.3359 22.8398 86.6016 21.6836C86.7578 20.9336 86.8789 20.2539 86.9648 19.6445H86.9414C86.4492 20.3398 86.0156 20.8398 85.6406 21.1445C85.2734 21.4492 84.8555 21.6836 84.3867 21.8477C83.9258 22.0117 83.3945 22.0938 82.793 22.0938C81.582 22.0938 80.6133 21.7031 79.8867 20.9219C79.168 20.1406 78.8086 19.1094 78.8086 17.8281C78.8086 16.2578 79.0547 14.7539 79.5469 13.3164C80.0469 11.8711 80.7305 10.8086 81.5977 10.1289C82.4727 9.44141 83.5781 9.09766 84.9141 9.09766C85.8359 9.09766 86.6289 9.31641 87.293 9.75391C87.957 10.1914 88.3945 10.7852 88.6055 11.5352H88.6289C88.6758 11.3086 88.7695 10.8984 88.9102 10.3047C89.0586 9.71094 89.1523 9.38281 89.1914 9.32031H92.2969L92.0742 10.293L91.7227 12.0039L89.7891 21.8828C89.4219 23.7031 88.7109 25.0078 87.6562 25.7969C86.6016 26.5859 85.082 26.9805 83.0977 26.9805ZM87.9609 13.9609C87.9609 13.1484 87.7578 12.5117 87.3516 12.0508C86.9453 11.582 86.375 11.3477 85.6406 11.3477C85.0469 11.3477 84.5547 11.4727 84.1641 11.7227C83.7812 11.9727 83.4531 12.3789 83.1797 12.9414C82.9141 13.4961 82.6914 14.2305 82.5117 15.1445C82.3398 16.0508 82.2539 16.7891 82.2539 17.3594C82.2539 18.9141 82.9297 19.6914 84.2812 19.6914C84.9766 19.6914 85.6094 19.4297 86.1797 18.9062C86.75 18.3828 87.1875 17.6719 87.4922 16.7734C87.8047 15.8672 87.9609 14.9297 87.9609 13.9609Z" fill="white"/>
<path d="M109.887 8.16016L107.191 22H103.734L106.43 8.16016H101.098L101.613 5.48828H115.746L115.23 8.16016H109.887Z" fill="white"/>
<path d="M127.066 13.9961C127.066 15.6133 126.746 17.0508 126.105 18.3086C125.473 19.5664 124.57 20.5352 123.398 21.2148C122.234 21.8945 120.918 22.2344 119.449 22.2344C117.746 22.2344 116.398 21.7773 115.406 20.8633C114.414 19.9414 113.918 18.6836 113.918 17.0898C113.918 15.5195 114.227 14.1289 114.844 12.918C115.469 11.707 116.355 10.7695 117.504 10.1055C118.652 9.43359 119.961 9.09766 121.43 9.09766C123.266 9.09766 124.664 9.52734 125.625 10.3867C126.586 11.2383 127.066 12.4414 127.066 13.9961ZM123.621 14.2422C123.621 12.3125 122.809 11.3477 121.184 11.3477C120.293 11.3477 119.582 11.582 119.051 12.0508C118.527 12.5195 118.117 13.2344 117.82 14.1953C117.523 15.1484 117.375 16.0664 117.375 16.9492C117.375 18.9727 118.188 19.9844 119.812 19.9844C120.688 19.9844 121.379 19.7656 121.887 19.3281C122.402 18.8828 122.805 18.2109 123.094 17.3125C123.391 16.4141 123.566 15.3906 123.621 14.2422Z" fill="white"/>
<path d="M132.902 26.9805C131.348 26.9805 130.152 26.7109 129.316 26.1719C128.48 25.6328 127.965 24.7969 127.77 23.6641L131.086 23.3125C131.297 24.3047 132.031 24.8008 133.289 24.8008C134.148 24.8008 134.816 24.5703 135.293 24.1094C135.77 23.6484 136.141 22.8398 136.406 21.6836C136.562 20.9336 136.684 20.2539 136.77 19.6445H136.746C136.254 20.3398 135.82 20.8398 135.445 21.1445C135.078 21.4492 134.66 21.6836 134.191 21.8477C133.73 22.0117 133.199 22.0938 132.598 22.0938C131.387 22.0938 130.418 21.7031 129.691 20.9219C128.973 20.1406 128.613 19.1094 128.613 17.8281C128.613 16.2578 128.859 14.7539 129.352 13.3164C129.852 11.8711 130.535 10.8086 131.402 10.1289C132.277 9.44141 133.383 9.09766 134.719 9.09766C135.641 9.09766 136.434 9.31641 137.098 9.75391C137.762 10.1914 138.199 10.7852 138.41 11.5352H138.434C138.48 11.3086 138.574 10.8984 138.715 10.3047C138.863 9.71094 138.957 9.38281 138.996 9.32031H142.102L141.879 10.293L141.527 12.0039L139.594 21.8828C139.227 23.7031 138.516 25.0078 137.461 25.7969C136.406 26.5859 134.887 26.9805 132.902 26.9805ZM137.766 13.9609C137.766 13.1484 137.562 12.5117 137.156 12.0508C136.75 11.582 136.18 11.3477 135.445 11.3477C134.852 11.3477 134.359 11.4727 133.969 11.7227C133.586 11.9727 133.258 12.3789 132.984 12.9414C132.719 13.4961 132.496 14.2305 132.316 15.1445C132.145 16.0508 132.059 16.7891 132.059 17.3594C132.059 18.9141 132.734 19.6914 134.086 19.6914C134.781 19.6914 135.414 19.4297 135.984 18.9062C136.555 18.3828 136.992 17.6719 137.297 16.7734C137.609 15.8672 137.766 14.9297 137.766 13.9609Z" fill="white"/>
<path d="M146.719 16.4219C146.664 16.7188 146.637 17.0664 146.637 17.4648C146.637 18.293 146.816 18.9297 147.176 19.375C147.543 19.8125 148.082 20.0312 148.793 20.0312C149.941 20.0312 150.773 19.3711 151.289 18.0508L154.16 18.918C153.574 20.1602 152.848 21.0234 151.98 21.5078C151.113 21.9922 149.977 22.2344 148.57 22.2344C146.906 22.2344 145.605 21.7852 144.668 20.8867C143.73 19.9805 143.262 18.7188 143.262 17.1016C143.262 15.4844 143.543 14.0703 144.105 12.8594C144.668 11.6406 145.465 10.707 146.496 10.0586C147.535 9.41016 148.734 9.08594 150.094 9.08594C151.727 9.08594 152.984 9.50781 153.867 10.3516C154.758 11.1875 155.203 12.3711 155.203 13.9023C155.203 14.6758 155.109 15.5156 154.922 16.4219H146.719ZM152.156 14.2305L152.191 13.5742C152.191 12.7383 151.996 12.1289 151.605 11.7461C151.223 11.3633 150.719 11.1719 150.094 11.1719C149.344 11.1719 148.711 11.4336 148.195 11.957C147.688 12.4727 147.324 13.2305 147.105 14.2305H152.156Z" fill="white"/>
<path d="M160.289 22.1875C159.32 22.1875 158.57 21.9609 158.039 21.5078C157.508 21.0469 157.242 20.3945 157.242 19.5508C157.242 18.9961 157.305 18.3828 157.43 17.7109L158.625 11.5469H156.891L157.324 9.32031H159.223L160.828 6.34375H162.891L162.328 9.32031H164.695L164.285 11.5469H161.883L160.664 17.8164C160.578 18.2539 160.535 18.6016 160.535 18.8594C160.535 19.2188 160.625 19.4883 160.805 19.668C160.992 19.8398 161.242 19.9258 161.555 19.9258C161.805 19.9258 162.227 19.875 162.82 19.7734L162.445 21.9062C161.812 22.0938 161.094 22.1875 160.289 22.1875Z" fill="white"/>
<path d="M170.918 4.60938L169.992 9.35547L169.535 11.4883H169.57C170.156 10.6758 170.801 10.0742 171.504 9.68359C172.215 9.29297 173.027 9.09766 173.941 9.09766C175.129 9.09766 176.023 9.38281 176.625 9.95312C177.227 10.5234 177.527 11.3477 177.527 12.4258C177.527 12.6211 177.5 12.9336 177.445 13.3633C177.391 13.7852 177.336 14.1133 177.281 14.3477L175.793 22H172.523L173.906 15.0273C174.109 14.0586 174.211 13.4141 174.211 13.0938C174.211 12.0859 173.617 11.582 172.43 11.582C171.641 11.582 170.91 11.9023 170.238 12.543C169.566 13.1836 169.145 13.9688 168.973 14.8984L167.59 22H164.285L167.637 4.60938H170.918Z" fill="white"/>
<path d="M182.742 16.4219C182.688 16.7188 182.66 17.0664 182.66 17.4648C182.66 18.293 182.84 18.9297 183.199 19.375C183.566 19.8125 184.105 20.0312 184.816 20.0312C185.965 20.0312 186.797 19.3711 187.312 18.0508L190.184 18.918C189.598 20.1602 188.871 21.0234 188.004 21.5078C187.137 21.9922 186 22.2344 184.594 22.2344C182.93 22.2344 181.629 21.7852 180.691 20.8867C179.754 19.9805 179.285 18.7188 179.285 17.1016C179.285 15.4844 179.566 14.0703 180.129 12.8594C180.691 11.6406 181.488 10.707 182.52 10.0586C183.559 9.41016 184.758 9.08594 186.117 9.08594C187.75 9.08594 189.008 9.50781 189.891 10.3516C190.781 11.1875 191.227 12.3711 191.227 13.9023C191.227 14.6758 191.133 15.5156 190.945 16.4219H182.742ZM188.18 14.2305L188.215 13.5742C188.215 12.7383 188.02 12.1289 187.629 11.7461C187.246 11.3633 186.742 11.1719 186.117 11.1719C185.367 11.1719 184.734 11.4336 184.219 11.957C183.711 12.4727 183.348 13.2305 183.129 14.2305H188.18Z" fill="white"/>
<path d="M201.797 12.0039C201.258 11.8867 200.812 11.8281 200.461 11.8281C199.5 11.8281 198.715 12.168 198.105 12.8477C197.504 13.5273 197.066 14.5703 196.793 15.9766L195.609 22H192.316L194.203 12.2734C194.391 11.3359 194.555 10.3516 194.695 9.32031H197.836L197.578 11.3359L197.484 11.9102H197.531C198.102 10.8633 198.664 10.1328 199.219 9.71875C199.773 9.29688 200.41 9.08594 201.129 9.08594C201.496 9.08594 201.898 9.14062 202.336 9.25L201.797 12.0039Z" fill="white"/>
<path d="M63.7705 7H59.5977C59.1715 6.99176 58.7652 6.79248 58.4663 6.44509C58.1675 6.0977 58 5.63003 58 5.14286C58 4.65568 58.1675 4.18801 58.4663 3.84062C58.7652 3.49324 59.1715 3.29395 59.5977 3.28571H59.9169C60.0752 2.90258 60.3251 2.5785 60.6379 2.35097C60.9506 2.12343 61.3134 2.00175 61.6841 2C62.1882 2.00528 62.6716 2.22976 63.0361 2.6278C63.4006 3.02584 63.6187 3.56757 63.6462 4.14286H63.7705C64.0984 4.14904 64.4111 4.30226 64.6411 4.5695C64.8711 4.83674 65 5.19658 65 5.57143C65 5.94628 64.8711 6.30612 64.6411 6.57336C64.4111 6.84059 64.0984 6.99382 63.7705 7Z" fill="white"/>
<path d="M13.1758 44L12.5312 39.7812H6.23828L3.95312 44H0.507812L9.73047 27.4883H13.8086L16.5977 44H13.1758ZM11.2656 30.0312C11.1016 30.5312 10.7188 31.3594 10.1172 32.5156L7.63281 37.1797H12.2617L11.4766 31.8828C11.3359 30.8281 11.2656 30.2109 11.2656 30.0312ZM18.7539 44L22.1289 26.6094H25.4219L22.0352 44H18.7539ZM25.4336 44L28.8086 26.6094H32.1016L28.7148 44H25.4336ZM48.8711 30.1602L46.1758 44H42.7188L45.4141 30.1602H40.082L40.5977 27.4883H54.7305L54.2148 30.1602H48.8711ZM60.0977 26.6094L59.1719 31.3555L58.7148 33.4883H58.75C59.3359 32.6758 59.9805 32.0742 60.6836 31.6836C61.3945 31.293 62.207 31.0977 63.1211 31.0977C64.3086 31.0977 65.2031 31.3828 65.8047 31.9531C66.4062 32.5234 66.707 33.3477 66.707 34.4258C66.707 34.6211 66.6797 34.9336 66.625 35.3633C66.5703 35.7852 66.5156 36.1133 66.4609 36.3477L64.9727 44H61.7031L63.0859 37.0273C63.2891 36.0586 63.3906 35.4141 63.3906 35.0938C63.3906 34.0859 62.7969 33.582 61.6094 33.582C60.8203 33.582 60.0898 33.9023 59.418 34.543C58.7461 35.1836 58.3242 35.9688 58.1523 36.8984L56.7695 44H53.4648L56.8164 26.6094H60.0977ZM71.9219 38.4219C71.8672 38.7188 71.8398 39.0664 71.8398 39.4648C71.8398 40.293 72.0195 40.9297 72.3789 41.375C72.7461 41.8125 73.2852 42.0312 73.9961 42.0312C75.1445 42.0312 75.9766 41.3711 76.4922 40.0508L79.3633 40.918C78.7773 42.1602 78.0508 43.0234 77.1836 43.5078C76.3164 43.9922 75.1797 44.2344 73.7734 44.2344C72.1094 44.2344 70.8086 43.7852 69.8711 42.8867C68.9336 41.9805 68.4648 40.7188 68.4648 39.1016C68.4648 37.4844 68.7461 36.0703 69.3086 34.8594C69.8711 33.6406 70.668 32.707 71.6992 32.0586C72.7383 31.4102 73.9375 31.0859 75.2969 31.0859C76.9297 31.0859 78.1875 31.5078 79.0703 32.3516C79.9609 33.1875 80.4062 34.3711 80.4062 35.9023C80.4062 36.6758 80.3125 37.5156 80.125 38.4219H71.9219ZM77.3594 36.2305L77.3945 35.5742C77.3945 34.7383 77.1992 34.1289 76.8086 33.7461C76.4258 33.3633 75.9219 33.1719 75.2969 33.1719C74.5469 33.1719 73.9141 33.4336 73.3984 33.957C72.8906 34.4727 72.5273 35.2305 72.3086 36.2305H77.3594ZM104.652 44H100.551L100.234 34.4844L100.188 31.9062L100.176 30.9219C99.707 32.1719 99.3477 33.1055 99.0977 33.7227C98.8555 34.3398 97.3984 37.7656 94.7266 44H90.5664L89.5234 27.4883H92.8047L93.2266 37.0391C93.2812 38.3516 93.3086 39.7031 93.3086 41.0938L93.9766 39.4062L94.8672 37.2383L99.0273 27.4883H102.73L103.223 41.0938C103.434 40.5234 103.738 39.7266 104.137 38.7031C104.543 37.6719 106.07 33.9336 108.719 27.4883H112.129L104.652 44ZM114.18 38.4219C114.125 38.7188 114.098 39.0664 114.098 39.4648C114.098 40.293 114.277 40.9297 114.637 41.375C115.004 41.8125 115.543 42.0312 116.254 42.0312C117.402 42.0312 118.234 41.3711 118.75 40.0508L121.621 40.918C121.035 42.1602 120.309 43.0234 119.441 43.5078C118.574 43.9922 117.438 44.2344 116.031 44.2344C114.367 44.2344 113.066 43.7852 112.129 42.8867C111.191 41.9805 110.723 40.7188 110.723 39.1016C110.723 37.4844 111.004 36.0703 111.566 34.8594C112.129 33.6406 112.926 32.707 113.957 32.0586C114.996 31.4102 116.195 31.0859 117.555 31.0859C119.188 31.0859 120.445 31.5078 121.328 32.3516C122.219 33.1875 122.664 34.3711 122.664 35.9023C122.664 36.6758 122.57 37.5156 122.383 38.4219H114.18ZM119.617 36.2305L119.652 35.5742C119.652 34.7383 119.457 34.1289 119.066 33.7461C118.684 33.3633 118.18 33.1719 117.555 33.1719C116.805 33.1719 116.172 33.4336 115.656 33.957C115.148 34.4727 114.785 35.2305 114.566 36.2305H119.617ZM133.797 44.1172C133.016 44.1172 132.414 43.9531 131.992 43.625C131.57 43.2969 131.359 42.8633 131.359 42.3242C131.359 42.0352 131.379 41.7852 131.418 41.5742H131.348C130.691 42.5898 130.043 43.2891 129.402 43.6719C128.762 44.0469 127.98 44.2344 127.059 44.2344C125.965 44.2344 125.09 43.9102 124.434 43.2617C123.785 42.6055 123.461 41.7656 123.461 40.7422C123.461 39.2969 123.957 38.207 124.949 37.4727C125.949 36.7305 127.566 36.3398 129.801 36.3008L132.039 36.2656C132.203 35.5234 132.285 35.0117 132.285 34.7305C132.285 33.7305 131.789 33.2305 130.797 33.2305C130.062 33.2305 129.516 33.375 129.156 33.6641C128.797 33.9453 128.551 34.3555 128.418 34.8945L125.336 34.5312C125.602 33.4062 126.199 32.5508 127.129 31.9648C128.066 31.3789 129.309 31.0859 130.855 31.0859C132.473 31.0859 133.656 31.3711 134.406 31.9414C135.164 32.5117 135.543 33.3789 135.543 34.543C135.543 34.832 135.449 35.4453 135.262 36.3828L134.43 40.5195C134.367 40.8711 134.336 41.1523 134.336 41.3633C134.336 41.5508 134.375 41.6953 134.453 41.7969C134.531 41.8984 134.621 41.9727 134.723 42.0195C134.824 42.0664 134.926 42.0977 135.027 42.1133C135.129 42.1211 135.207 42.125 135.262 42.125C135.496 42.125 135.738 42.0977 135.988 42.043L135.824 43.8594C135.496 43.9844 135.164 44.0586 134.828 44.082C134.492 44.1055 134.148 44.1172 133.797 44.1172ZM131.676 38.1055H129.777C128.863 38.1211 128.141 38.3086 127.609 38.668C127.086 39.0273 126.824 39.5352 126.824 40.1914C126.824 40.7383 126.977 41.168 127.281 41.4805C127.594 41.7852 128.012 41.9375 128.535 41.9375C129.184 41.9375 129.773 41.6875 130.305 41.1875C130.836 40.6797 131.207 40.0117 131.418 39.1836L131.676 38.1055ZM141.109 44.1875C140.141 44.1875 139.391 43.9609 138.859 43.5078C138.328 43.0469 138.062 42.3945 138.062 41.5508C138.062 40.9961 138.125 40.3828 138.25 39.7109L139.445 33.5469H137.711L138.145 31.3203H140.043L141.648 28.3438H143.711L143.148 31.3203H145.516L145.105 33.5469H142.703L141.484 39.8164C141.398 40.2539 141.355 40.6016 141.355 40.8594C141.355 41.2188 141.445 41.4883 141.625 41.668C141.812 41.8398 142.062 41.9258 142.375 41.9258C142.625 41.9258 143.047 41.875 143.641 41.7734L143.266 43.9062C142.633 44.0938 141.914 44.1875 141.109 44.1875ZM151.738 26.6094L150.812 31.3555L150.355 33.4883H150.391C150.977 32.6758 151.621 32.0742 152.324 31.6836C153.035 31.293 153.848 31.0977 154.762 31.0977C155.949 31.0977 156.844 31.3828 157.445 31.9531C158.047 32.5234 158.348 33.3477 158.348 34.4258C158.348 34.6211 158.32 34.9336 158.266 35.3633C158.211 35.7852 158.156 36.1133 158.102 36.3477L156.613 44H153.344L154.727 37.0273C154.93 36.0586 155.031 35.4141 155.031 35.0938C155.031 34.0859 154.438 33.582 153.25 33.582C152.461 33.582 151.73 33.9023 151.059 34.543C150.387 35.1836 149.965 35.9688 149.793 36.8984L148.41 44H145.105L148.457 26.6094H151.738ZM163.562 38.4219C163.508 38.7188 163.48 39.0664 163.48 39.4648C163.48 40.293 163.66 40.9297 164.02 41.375C164.387 41.8125 164.926 42.0312 165.637 42.0312C166.785 42.0312 167.617 41.3711 168.133 40.0508L171.004 40.918C170.418 42.1602 169.691 43.0234 168.824 43.5078C167.957 43.9922 166.82 44.2344 165.414 44.2344C163.75 44.2344 162.449 43.7852 161.512 42.8867C160.574 41.9805 160.105 40.7188 160.105 39.1016C160.105 37.4844 160.387 36.0703 160.949 34.8594C161.512 33.6406 162.309 32.707 163.34 32.0586C164.379 31.4102 165.578 31.0859 166.938 31.0859C168.57 31.0859 169.828 31.5078 170.711 32.3516C171.602 33.1875 172.047 34.3711 172.047 35.9023C172.047 36.6758 171.953 37.5156 171.766 38.4219H163.562ZM169 36.2305L169.035 35.5742C169.035 34.7383 168.84 34.1289 168.449 33.7461C168.066 33.3633 167.562 33.1719 166.938 33.1719C166.188 33.1719 165.555 33.4336 165.039 33.957C164.531 34.4727 164.168 35.2305 163.949 36.2305H169ZM182.617 34.0039C182.078 33.8867 181.633 33.8281 181.281 33.8281C180.32 33.8281 179.535 34.168 178.926 34.8477C178.324 35.5273 177.887 36.5703 177.613 37.9766L176.43 44H173.137L175.023 34.2734C175.211 33.3359 175.375 32.3516 175.516 31.3203H178.656L178.398 33.3359L178.305 33.9102H178.352C178.922 32.8633 179.484 32.1328 180.039 31.7188C180.594 31.2969 181.23 31.0859 181.949 31.0859C182.316 31.0859 182.719 31.1406 183.156 31.25L182.617 34.0039Z" fill="white"/>
<path d="M200.38 42.7727C200.979 42.7727 201.465 42.3148 201.465 41.75C201.465 41.1851 200.979 40.7272 200.38 40.7272C199.781 40.7272 199.295 41.1851 199.295 41.75C199.295 42.3148 199.781 42.7727 200.38 42.7727Z" fill="white"/>
<path d="M203.995 44.1363C204.595 44.1363 205.08 43.6784 205.08 43.1135C205.08 42.5487 204.595 42.0908 203.995 42.0908C203.396 42.0908 202.911 42.5487 202.911 43.1135C202.911 43.6784 203.396 44.1363 203.995 44.1363Z" fill="white"/>
<path d="M197.969 45.7273C198.568 45.7273 199.054 45.2694 199.054 44.7046C199.054 44.1397 198.568 43.6818 197.969 43.6818C197.37 43.6818 196.884 44.1397 196.884 44.7046C196.884 45.2694 197.37 45.7273 197.969 45.7273Z" fill="white"/>
<path d="M209.257 43.9091H207.322C207.194 43.9091 207.072 43.8612 206.981 43.776C206.891 43.6907 206.84 43.5751 206.84 43.4545C206.84 43.334 206.891 43.2184 206.981 43.1331C207.072 43.0479 207.194 43 207.322 43H209.257C210.267 42.9803 211.227 42.5886 211.934 41.9088C212.64 41.229 213.036 40.3152 213.036 39.3636C213.036 38.412 212.64 37.4983 211.934 36.8185C211.227 36.1387 210.267 35.7469 209.257 35.7273H208.311C208.183 35.7273 208.06 35.6794 207.97 35.5941C207.879 35.5089 207.829 35.3933 207.829 35.2727C207.844 33.602 207.156 31.9938 205.915 30.8009C204.674 29.6079 202.982 28.9276 201.21 28.9091C199.914 28.9156 198.649 29.2806 197.571 29.9589C196.493 30.6372 195.651 31.599 195.147 32.7248C195.11 32.8065 195.048 32.8761 194.97 32.925C194.891 32.9739 194.799 33 194.704 33H193.163C191.775 33.0262 190.453 33.5645 189.481 34.4994C188.509 35.4342 187.964 36.691 187.964 38C187.964 39.309 188.509 40.5658 189.481 41.5006C190.453 42.4355 191.775 42.9738 193.163 43H194.657C194.785 43 194.908 43.0479 194.998 43.1331C195.089 43.2184 195.14 43.334 195.14 43.4545C195.14 43.5751 195.089 43.6907 194.998 43.776C194.908 43.8612 194.785 43.9091 194.657 43.9091H193.163C191.519 43.8829 189.951 43.2488 188.799 42.1435C187.646 41.0382 187 39.5501 187 38C187 36.4499 187.646 34.9618 188.799 33.8565C189.951 32.7512 191.519 32.1171 193.163 32.0909H194.394C195.004 30.8718 195.968 29.8407 197.175 29.1167C198.381 28.3927 199.78 28.0056 201.21 28C203.154 28.0168 205.019 28.731 206.425 29.9975C207.831 31.264 208.672 32.9877 208.778 34.8182H209.257C210.522 34.8379 211.728 35.3254 212.616 36.1757C213.503 37.026 214 38.1709 214 39.3636C214 40.5563 213.503 41.7013 212.616 42.5516C211.728 43.4019 210.522 43.8894 209.257 43.9091V43.9091Z" fill="white"/>
<path d="M201.826 48C202.425 48 202.911 47.5422 202.911 46.9773C202.911 46.4125 202.425 45.9546 201.826 45.9546C201.227 45.9546 200.741 46.4125 200.741 46.9773C200.741 47.5422 201.227 48 201.826 48Z" fill="white"/>
<path d="M19.9999 17.6C19.2879 17.6 18.5919 17.3889 17.9999 16.9933C17.4078 16.5977 16.9464 16.0355 16.6739 15.3777C16.4015 14.7199 16.3302 13.996 16.4691 13.2977C16.608 12.5994 16.9509 11.9579 17.4543 11.4544C17.9578 10.951 18.5992 10.6081 19.2976 10.4692C19.9959 10.3303 20.7198 10.4016 21.3776 10.6741C22.0354 10.9465 22.5976 11.408 22.9932 12C23.3888 12.592 23.5999 13.288 23.5999 14C23.5988 14.9545 23.2192 15.8695 22.5443 16.5444C21.8694 17.2193 20.9543 17.5989 19.9999 17.6Z" fill="#FEFEFF"/>
<path d="M20.1151 9.30084C20.0291 9.30084 19.9466 9.26727 19.8858 9.20753C19.8249 9.14778 19.7908 9.06675 19.7908 8.98226V5.31858C19.7908 5.23409 19.8249 5.15306 19.8858 5.09331C19.9466 5.03357 20.0291 5 20.1151 5C20.2011 5 20.2836 5.03357 20.3444 5.09331C20.4053 5.15306 20.4394 5.23409 20.4394 5.31858V8.98226C20.4394 9.06675 20.4053 9.14778 20.3444 9.20753C20.2836 9.26727 20.2011 9.30084 20.1151 9.30084Z" fill="#FEFEFF"/>
<path d="M15.0541 14.2727H11.3243C11.2383 14.2727 11.1558 14.2392 11.095 14.1794C11.0342 14.1197 11 14.0386 11 13.9541C11 13.8696 11.0342 13.7886 11.095 13.7289C11.1558 13.6691 11.2383 13.6356 11.3243 13.6356H15.0541C15.1402 13.6356 15.2227 13.6691 15.2835 13.7289C15.3443 13.7886 15.3785 13.8696 15.3785 13.9541C15.3785 14.0386 15.3443 14.1197 15.2835 14.1794C15.2227 14.2392 15.1402 14.2727 15.0541 14.2727Z" fill="#FEFEFF"/>
<path d="M28.6757 14.2727H24.9459C24.8599 14.2727 24.7774 14.2392 24.7166 14.1794C24.6558 14.1197 24.6216 14.0386 24.6216 13.9541C24.6216 13.8696 24.6558 13.7886 24.7166 13.7289C24.7774 13.6691 24.8599 13.6356 24.9459 13.6356H28.6757C28.7618 13.6356 28.8442 13.6691 28.9051 13.7289C28.9659 13.7886 29.0001 13.8696 29.0001 13.9541C29.0001 14.0386 28.9659 14.1197 28.9051 14.1794C28.8442 14.2392 28.7618 14.2727 28.6757 14.2727Z" fill="#FEFEFF"/>
<path d="M24.8439 10.7894C24.7793 10.7894 24.7162 10.7704 24.6626 10.735C24.6091 10.6996 24.5675 10.6492 24.5433 10.5905C24.519 10.5317 24.5132 10.4671 24.5265 10.4051C24.5398 10.343 24.5717 10.2863 24.618 10.2421L26.18 8.75361C26.2417 8.69477 26.3247 8.66245 26.4107 8.66373C26.4968 8.66502 26.5787 8.6998 26.6386 8.76045C26.6985 8.8211 26.7314 8.90263 26.7301 8.98712C26.7288 9.0716 26.6934 9.15211 26.6317 9.21094L25.0697 10.6995C25.0092 10.7572 24.9282 10.7895 24.8439 10.7894V10.7894Z" fill="#FEFEFF"/>
<path d="M15.3192 10.7894C15.2348 10.7895 15.1538 10.7572 15.0933 10.6995L13.5314 9.21094C13.5008 9.18181 13.4764 9.14705 13.4595 9.10865C13.4426 9.07024 13.4335 9.02895 13.4329 8.98712C13.4323 8.94528 13.44 8.90373 13.4557 8.86484C13.4714 8.82595 13.4947 8.79048 13.5244 8.76045C13.5541 8.73042 13.5894 8.70642 13.6285 8.68983C13.6676 8.67323 13.7097 8.66437 13.7523 8.66373C13.7949 8.6631 13.8372 8.6707 13.8768 8.68612C13.9163 8.70154 13.9525 8.72448 13.983 8.75361L15.545 10.2421C15.5913 10.2863 15.6232 10.343 15.6365 10.4051C15.6498 10.4671 15.644 10.5317 15.6197 10.5905C15.5955 10.6493 15.5539 10.6996 15.5004 10.735C15.4468 10.7705 15.3837 10.7894 15.3192 10.7894Z" fill="#FEFEFF"/>
<path d="M14.0814 19.4954C14.0176 19.4954 13.9553 19.4769 13.9022 19.4423C13.8491 19.4077 13.8075 19.3585 13.7827 19.3009C13.7579 19.2432 13.7509 19.1796 13.7626 19.1181C13.7744 19.0566 13.8043 18.9998 13.8487 18.9548L15.4106 17.3749C15.4706 17.3142 15.5526 17.2795 15.6386 17.2782C15.7246 17.277 15.8076 17.3094 15.8693 17.3682C15.931 17.4271 15.9664 17.5077 15.9677 17.5922C15.969 17.6767 15.936 17.7582 15.8761 17.8188L14.3141 19.3988C14.2839 19.4294 14.2477 19.4537 14.2077 19.4703C14.1677 19.4869 14.1248 19.4954 14.0814 19.4954V19.4954Z" fill="#FEFEFF"/>
<path d="M26.7301 19.8141C26.6868 19.8142 26.644 19.8057 26.6041 19.7892C26.5642 19.7727 26.5281 19.7485 26.498 19.718L24.6117 17.8194C24.582 17.7895 24.5585 17.7541 24.5427 17.7152C24.5269 17.6764 24.519 17.6349 24.5196 17.5931C24.5201 17.5512 24.529 17.5099 24.5458 17.4715C24.5625 17.433 24.5869 17.3982 24.6173 17.369C24.6478 17.3398 24.6838 17.3167 24.7234 17.3012C24.7629 17.2857 24.8052 17.278 24.8478 17.2785C24.8904 17.279 24.9324 17.2877 24.9715 17.3042C25.0107 17.3207 25.0461 17.3446 25.0759 17.3745L26.9622 19.2731C27.0068 19.3179 27.0369 19.3747 27.0488 19.4363C27.0606 19.4979 27.0538 19.5615 27.029 19.6193C27.0042 19.6771 26.9626 19.7263 26.9095 19.761C26.8563 19.7957 26.7939 19.8141 26.7301 19.8141Z" fill="#FEFEFF"/>
<path d="M20.1151 22.9999C20.0291 22.9999 19.9466 22.9664 19.8858 22.9066C19.8249 22.8469 19.7908 22.7659 19.7908 22.6814V19.0177C19.7908 18.9332 19.8249 18.8522 19.8858 18.7924C19.9466 18.7327 20.0291 18.6991 20.1151 18.6991C20.2011 18.6991 20.2836 18.7327 20.3444 18.7924C20.4053 18.8522 20.4394 18.9332 20.4394 19.0177V22.6814C20.4394 22.7659 20.4053 22.8469 20.3444 22.9066C20.2836 22.9664 20.2011 22.9999 20.1151 22.9999Z" fill="#FEFEFF"/>
</svg>
