<svg width="214" height="50" viewBox="0 0 214 50" fill="none" xmlns="http://www.w3.org/2000/svg">
<path d="M37.6328 5.48828H44.4766C46.4375 5.48828 47.9219 5.8125 48.9297 6.46094C49.9375 7.10156 50.4414 8.05078 50.4414 9.30859C50.4414 10.3789 50.1172 11.2578 49.4688 11.9453C48.8281 12.625 47.8867 13.0938 46.6445 13.3516C47.707 13.5312 48.5352 13.9453 49.1289 14.5938C49.7305 15.2344 50.0312 16.0195 50.0312 16.9492C50.0312 18.5977 49.418 19.8516 48.1914 20.7109C46.9727 21.5703 45.1367 22 42.6836 22H34.4219L37.6328 5.48828ZM39.7891 12.1445H43.2344C44.6016 12.1445 45.5703 11.9648 46.1406 11.6055C46.7188 11.2461 47.0078 10.6562 47.0078 9.83594C47.0078 9.21094 46.7852 8.75781 46.3398 8.47656C45.8945 8.19531 45.1484 8.05469 44.1016 8.05469H40.5742L39.7891 12.1445ZM38.3711 19.4336H42.2148C43.8477 19.4336 44.9805 19.2383 45.6133 18.8477C46.2461 18.4492 46.5625 17.793 46.5625 16.8789C46.5625 16.1758 46.2969 15.6367 45.7656 15.2617C45.2344 14.8867 44.3672 14.6992 43.1641 14.6992H39.2969L38.3711 19.4336Z" fill="white"/>
<path d="M61.2344 12.0039C60.6953 11.8867 60.25 11.8281 59.8984 11.8281C58.9375 11.8281 58.1523 12.168 57.543 12.8477C56.9414 13.5273 56.5039 14.5703 56.2305 15.9766L55.0469 22H51.7539L53.6406 12.2734C53.8281 11.3359 53.9922 10.3516 54.1328 9.32031H57.2734L57.0156 11.3359L56.9219 11.9102H56.9688C57.5391 10.8633 58.1016 10.1328 58.6562 9.71875C59.2109 9.29688 59.8477 9.08594 60.5664 9.08594C60.9336 9.08594 61.3359 9.14062 61.7734 9.25L61.2344 12.0039Z" fill="white"/>
<path d="M61.1055 22L63.5664 9.32031H66.8594L64.3867 22H61.1055Z" fill="white"/>
<path d="M76.0234 22L77.4062 15.0273C77.6094 14.0586 77.7109 13.4141 77.7109 13.0938C77.7109 12.0859 77.1172 11.582 75.9297 11.582C75.1406 11.582 74.4102 11.9023 73.7383 12.543C73.0664 13.1836 72.6445 13.9688 72.4727 14.8984L71.0898 22H67.7852L69.7305 12.0273C69.8555 11.4102 70.0039 10.5078 70.1758 9.32031H73.3164C73.3164 9.39062 73.2773 9.71875 73.1992 10.3047C73.1289 10.8906 73.0742 11.2852 73.0352 11.4883H73.0703C73.6562 10.6758 74.3008 10.0742 75.0039 9.68359C75.7148 9.29297 76.5273 9.09766 77.4414 9.09766C78.6289 9.09766 79.5234 9.38281 80.125 9.95312C80.7266 10.5234 81.0273 11.3477 81.0273 12.4258C81.0273 12.6211 81 12.9336 80.9453 13.3633C80.8906 13.7852 80.8359 14.1133 80.7812 14.3477L79.293 22H76.0234Z" fill="white"/>
<path d="M87.0977 26.9805C85.543 26.9805 84.3477 26.7109 83.5117 26.1719C82.6758 25.6328 82.1602 24.7969 81.9648 23.6641L85.2812 23.3125C85.4922 24.3047 86.2266 24.8008 87.4844 24.8008C88.3438 24.8008 89.0117 24.5703 89.4883 24.1094C89.9648 23.6484 90.3359 22.8398 90.6016 21.6836C90.7578 20.9336 90.8789 20.2539 90.9648 19.6445H90.9414C90.4492 20.3398 90.0156 20.8398 89.6406 21.1445C89.2734 21.4492 88.8555 21.6836 88.3867 21.8477C87.9258 22.0117 87.3945 22.0938 86.793 22.0938C85.582 22.0938 84.6133 21.7031 83.8867 20.9219C83.168 20.1406 82.8086 19.1094 82.8086 17.8281C82.8086 16.2578 83.0547 14.7539 83.5469 13.3164C84.0469 11.8711 84.7305 10.8086 85.5977 10.1289C86.4727 9.44141 87.5781 9.09766 88.9141 9.09766C89.8359 9.09766 90.6289 9.31641 91.293 9.75391C91.957 10.1914 92.3945 10.7852 92.6055 11.5352H92.6289C92.6758 11.3086 92.7695 10.8984 92.9102 10.3047C93.0586 9.71094 93.1523 9.38281 93.1914 9.32031H96.2969L96.0742 10.293L95.7227 12.0039L93.7891 21.8828C93.4219 23.7031 92.7109 25.0078 91.6562 25.7969C90.6016 26.5859 89.082 26.9805 87.0977 26.9805ZM91.9609 13.9609C91.9609 13.1484 91.7578 12.5117 91.3516 12.0508C90.9453 11.582 90.375 11.3477 89.6406 11.3477C89.0469 11.3477 88.5547 11.4727 88.1641 11.7227C87.7812 11.9727 87.4531 12.3789 87.1797 12.9414C86.9141 13.4961 86.6914 14.2305 86.5117 15.1445C86.3398 16.0508 86.2539 16.7891 86.2539 17.3594C86.2539 18.9141 86.9297 19.6914 88.2812 19.6914C88.9766 19.6914 89.6094 19.4297 90.1797 18.9062C90.75 18.3828 91.1875 17.6719 91.4922 16.7734C91.8047 15.8672 91.9609 14.9297 91.9609 13.9609Z" fill="white"/>
<path d="M113.887 8.16016L111.191 22H107.734L110.43 8.16016H105.098L105.613 5.48828H119.746L119.23 8.16016H113.887Z" fill="white"/>
<path d="M131.066 13.9961C131.066 15.6133 130.746 17.0508 130.105 18.3086C129.473 19.5664 128.57 20.5352 127.398 21.2148C126.234 21.8945 124.918 22.2344 123.449 22.2344C121.746 22.2344 120.398 21.7773 119.406 20.8633C118.414 19.9414 117.918 18.6836 117.918 17.0898C117.918 15.5195 118.227 14.1289 118.844 12.918C119.469 11.707 120.355 10.7695 121.504 10.1055C122.652 9.43359 123.961 9.09766 125.43 9.09766C127.266 9.09766 128.664 9.52734 129.625 10.3867C130.586 11.2383 131.066 12.4414 131.066 13.9961ZM127.621 14.2422C127.621 12.3125 126.809 11.3477 125.184 11.3477C124.293 11.3477 123.582 11.582 123.051 12.0508C122.527 12.5195 122.117 13.2344 121.82 14.1953C121.523 15.1484 121.375 16.0664 121.375 16.9492C121.375 18.9727 122.188 19.9844 123.812 19.9844C124.688 19.9844 125.379 19.7656 125.887 19.3281C126.402 18.8828 126.805 18.2109 127.094 17.3125C127.391 16.4141 127.566 15.3906 127.621 14.2422Z" fill="white"/>
<path d="M136.902 26.9805C135.348 26.9805 134.152 26.7109 133.316 26.1719C132.48 25.6328 131.965 24.7969 131.77 23.6641L135.086 23.3125C135.297 24.3047 136.031 24.8008 137.289 24.8008C138.148 24.8008 138.816 24.5703 139.293 24.1094C139.77 23.6484 140.141 22.8398 140.406 21.6836C140.562 20.9336 140.684 20.2539 140.77 19.6445H140.746C140.254 20.3398 139.82 20.8398 139.445 21.1445C139.078 21.4492 138.66 21.6836 138.191 21.8477C137.73 22.0117 137.199 22.0938 136.598 22.0938C135.387 22.0938 134.418 21.7031 133.691 20.9219C132.973 20.1406 132.613 19.1094 132.613 17.8281C132.613 16.2578 132.859 14.7539 133.352 13.3164C133.852 11.8711 134.535 10.8086 135.402 10.1289C136.277 9.44141 137.383 9.09766 138.719 9.09766C139.641 9.09766 140.434 9.31641 141.098 9.75391C141.762 10.1914 142.199 10.7852 142.41 11.5352H142.434C142.48 11.3086 142.574 10.8984 142.715 10.3047C142.863 9.71094 142.957 9.38281 142.996 9.32031H146.102L145.879 10.293L145.527 12.0039L143.594 21.8828C143.227 23.7031 142.516 25.0078 141.461 25.7969C140.406 26.5859 138.887 26.9805 136.902 26.9805ZM141.766 13.9609C141.766 13.1484 141.562 12.5117 141.156 12.0508C140.75 11.582 140.18 11.3477 139.445 11.3477C138.852 11.3477 138.359 11.4727 137.969 11.7227C137.586 11.9727 137.258 12.3789 136.984 12.9414C136.719 13.4961 136.496 14.2305 136.316 15.1445C136.145 16.0508 136.059 16.7891 136.059 17.3594C136.059 18.9141 136.734 19.6914 138.086 19.6914C138.781 19.6914 139.414 19.4297 139.984 18.9062C140.555 18.3828 140.992 17.6719 141.297 16.7734C141.609 15.8672 141.766 14.9297 141.766 13.9609Z" fill="white"/>
<path d="M153.566 4.60938L152.641 9.35547L152.184 11.4883H152.219C152.805 10.6758 153.449 10.0742 154.152 9.68359C154.863 9.29297 155.676 9.09766 156.59 9.09766C157.777 9.09766 158.672 9.38281 159.273 9.95312C159.875 10.5234 160.176 11.3477 160.176 12.4258C160.176 12.6211 160.148 12.9336 160.094 13.3633C160.039 13.7852 159.984 14.1133 159.93 14.3477L158.441 22H155.172L156.555 15.0273C156.758 14.0586 156.859 13.4141 156.859 13.0938C156.859 12.0859 156.266 11.582 155.078 11.582C154.289 11.582 153.559 11.9023 152.887 12.543C152.215 13.1836 151.793 13.9688 151.621 14.8984L150.238 22H146.934L150.285 4.60938H153.566Z" fill="white"/>
<path d="M165.391 16.4219C165.336 16.7188 165.309 17.0664 165.309 17.4648C165.309 18.293 165.488 18.9297 165.848 19.375C166.215 19.8125 166.754 20.0312 167.465 20.0312C168.613 20.0312 169.445 19.3711 169.961 18.0508L172.832 18.918C172.246 20.1602 171.52 21.0234 170.652 21.5078C169.785 21.9922 168.648 22.2344 167.242 22.2344C165.578 22.2344 164.277 21.7852 163.34 20.8867C162.402 19.9805 161.934 18.7188 161.934 17.1016C161.934 15.4844 162.215 14.0703 162.777 12.8594C163.34 11.6406 164.137 10.707 165.168 10.0586C166.207 9.41016 167.406 9.08594 168.766 9.08594C170.398 9.08594 171.656 9.50781 172.539 10.3516C173.43 11.1875 173.875 12.3711 173.875 13.9023C173.875 14.6758 173.781 15.5156 173.594 16.4219H165.391ZM170.828 14.2305L170.863 13.5742C170.863 12.7383 170.668 12.1289 170.277 11.7461C169.895 11.3633 169.391 11.1719 168.766 11.1719C168.016 11.1719 167.383 11.4336 166.867 11.957C166.359 12.4727 165.996 13.2305 165.777 14.2305H170.828Z" fill="white"/>
<path d="M178.961 22.1875C177.992 22.1875 177.242 21.9609 176.711 21.5078C176.18 21.0469 175.914 20.3945 175.914 19.5508C175.914 18.9961 175.977 18.3828 176.102 17.7109L177.297 11.5469H175.562L175.996 9.32031H177.895L179.5 6.34375H181.562L181 9.32031H183.367L182.957 11.5469H180.555L179.336 17.8164C179.25 18.2539 179.207 18.6016 179.207 18.8594C179.207 19.2188 179.297 19.4883 179.477 19.668C179.664 19.8398 179.914 19.9258 180.227 19.9258C180.477 19.9258 180.898 19.875 181.492 19.7734L181.117 21.9062C180.484 22.0938 179.766 22.1875 178.961 22.1875Z" fill="white"/>
<path d="M186.742 16.4219C186.688 16.7188 186.66 17.0664 186.66 17.4648C186.66 18.293 186.84 18.9297 187.199 19.375C187.566 19.8125 188.105 20.0312 188.816 20.0312C189.965 20.0312 190.797 19.3711 191.312 18.0508L194.184 18.918C193.598 20.1602 192.871 21.0234 192.004 21.5078C191.137 21.9922 190 22.2344 188.594 22.2344C186.93 22.2344 185.629 21.7852 184.691 20.8867C183.754 19.9805 183.285 18.7188 183.285 17.1016C183.285 15.4844 183.566 14.0703 184.129 12.8594C184.691 11.6406 185.488 10.707 186.52 10.0586C187.559 9.41016 188.758 9.08594 190.117 9.08594C191.75 9.08594 193.008 9.50781 193.891 10.3516C194.781 11.1875 195.227 12.3711 195.227 13.9023C195.227 14.6758 195.133 15.5156 194.945 16.4219H186.742ZM192.18 14.2305L192.215 13.5742C192.215 12.7383 192.02 12.1289 191.629 11.7461C191.246 11.3633 190.742 11.1719 190.117 11.1719C189.367 11.1719 188.734 11.4336 188.219 11.957C187.711 12.4727 187.348 13.2305 187.129 14.2305H192.18Z" fill="white"/>
<path d="M205.797 12.0039C205.258 11.8867 204.812 11.8281 204.461 11.8281C203.5 11.8281 202.715 12.168 202.105 12.8477C201.504 13.5273 201.066 14.5703 200.793 15.9766L199.609 22H196.316L198.203 12.2734C198.391 11.3359 198.555 10.3516 198.695 9.32031H201.836L201.578 11.3359L201.484 11.9102H201.531C202.102 10.8633 202.664 10.1328 203.219 9.71875C203.773 9.29688 204.41 9.08594 205.129 9.08594C205.496 9.08594 205.898 9.14062 206.336 9.25L205.797 12.0039Z" fill="white"/>
<path d="M67.7705 7H63.5977C63.1715 6.99176 62.7652 6.79248 62.4663 6.44509C62.1675 6.0977 62 5.63003 62 5.14286C62 4.65568 62.1675 4.18801 62.4663 3.84062C62.7652 3.49324 63.1715 3.29395 63.5977 3.28571H63.9169C64.0752 2.90258 64.3251 2.5785 64.6379 2.35097C64.9506 2.12343 65.3134 2.00175 65.6841 2C66.1882 2.00528 66.6716 2.22976 67.0361 2.6278C67.4006 3.02584 67.6187 3.56757 67.6462 4.14286H67.7705C68.0984 4.14904 68.4111 4.30226 68.6411 4.5695C68.8711 4.83674 69 5.19658 69 5.57143C69 5.94628 68.8711 6.30612 68.6411 6.57336C68.4111 6.84059 68.0984 6.99382 67.7705 7Z" fill="white"/>
<path d="M13.1758 44L12.5312 39.7812H6.23828L3.95312 44H0.507812L9.73047 27.4883H13.8086L16.5977 44H13.1758ZM11.2656 30.0312C11.1016 30.5312 10.7188 31.3594 10.1172 32.5156L7.63281 37.1797H12.2617L11.4766 31.8828C11.3359 30.8281 11.2656 30.2109 11.2656 30.0312ZM18.7539 44L22.1289 26.6094H25.4219L22.0352 44H18.7539ZM25.4336 44L28.8086 26.6094H32.1016L28.7148 44H25.4336ZM48.8711 30.1602L46.1758 44H42.7188L45.4141 30.1602H40.082L40.5977 27.4883H54.7305L54.2148 30.1602H48.8711ZM60.0977 26.6094L59.1719 31.3555L58.7148 33.4883H58.75C59.3359 32.6758 59.9805 32.0742 60.6836 31.6836C61.3945 31.293 62.207 31.0977 63.1211 31.0977C64.3086 31.0977 65.2031 31.3828 65.8047 31.9531C66.4062 32.5234 66.707 33.3477 66.707 34.4258C66.707 34.6211 66.6797 34.9336 66.625 35.3633C66.5703 35.7852 66.5156 36.1133 66.4609 36.3477L64.9727 44H61.7031L63.0859 37.0273C63.2891 36.0586 63.3906 35.4141 63.3906 35.0938C63.3906 34.0859 62.7969 33.582 61.6094 33.582C60.8203 33.582 60.0898 33.9023 59.418 34.543C58.7461 35.1836 58.3242 35.9688 58.1523 36.8984L56.7695 44H53.4648L56.8164 26.6094H60.0977ZM71.9219 38.4219C71.8672 38.7188 71.8398 39.0664 71.8398 39.4648C71.8398 40.293 72.0195 40.9297 72.3789 41.375C72.7461 41.8125 73.2852 42.0312 73.9961 42.0312C75.1445 42.0312 75.9766 41.3711 76.4922 40.0508L79.3633 40.918C78.7773 42.1602 78.0508 43.0234 77.1836 43.5078C76.3164 43.9922 75.1797 44.2344 73.7734 44.2344C72.1094 44.2344 70.8086 43.7852 69.8711 42.8867C68.9336 41.9805 68.4648 40.7188 68.4648 39.1016C68.4648 37.4844 68.7461 36.0703 69.3086 34.8594C69.8711 33.6406 70.668 32.707 71.6992 32.0586C72.7383 31.4102 73.9375 31.0859 75.2969 31.0859C76.9297 31.0859 78.1875 31.5078 79.0703 32.3516C79.9609 33.1875 80.4062 34.3711 80.4062 35.9023C80.4062 36.6758 80.3125 37.5156 80.125 38.4219H71.9219ZM77.3594 36.2305L77.3945 35.5742C77.3945 34.7383 77.1992 34.1289 76.8086 33.7461C76.4258 33.3633 75.9219 33.1719 75.2969 33.1719C74.5469 33.1719 73.9141 33.4336 73.3984 33.957C72.8906 34.4727 72.5273 35.2305 72.3086 36.2305H77.3594ZM104.652 44H100.551L100.234 34.4844L100.188 31.9062L100.176 30.9219C99.707 32.1719 99.3477 33.1055 99.0977 33.7227C98.8555 34.3398 97.3984 37.7656 94.7266 44H90.5664L89.5234 27.4883H92.8047L93.2266 37.0391C93.2812 38.3516 93.3086 39.7031 93.3086 41.0938L93.9766 39.4062L94.8672 37.2383L99.0273 27.4883H102.73L103.223 41.0938C103.434 40.5234 103.738 39.7266 104.137 38.7031C104.543 37.6719 106.07 33.9336 108.719 27.4883H112.129L104.652 44ZM114.18 38.4219C114.125 38.7188 114.098 39.0664 114.098 39.4648C114.098 40.293 114.277 40.9297 114.637 41.375C115.004 41.8125 115.543 42.0312 116.254 42.0312C117.402 42.0312 118.234 41.3711 118.75 40.0508L121.621 40.918C121.035 42.1602 120.309 43.0234 119.441 43.5078C118.574 43.9922 117.438 44.2344 116.031 44.2344C114.367 44.2344 113.066 43.7852 112.129 42.8867C111.191 41.9805 110.723 40.7188 110.723 39.1016C110.723 37.4844 111.004 36.0703 111.566 34.8594C112.129 33.6406 112.926 32.707 113.957 32.0586C114.996 31.4102 116.195 31.0859 117.555 31.0859C119.188 31.0859 120.445 31.5078 121.328 32.3516C122.219 33.1875 122.664 34.3711 122.664 35.9023C122.664 36.6758 122.57 37.5156 122.383 38.4219H114.18ZM119.617 36.2305L119.652 35.5742C119.652 34.7383 119.457 34.1289 119.066 33.7461C118.684 33.3633 118.18 33.1719 117.555 33.1719C116.805 33.1719 116.172 33.4336 115.656 33.957C115.148 34.4727 114.785 35.2305 114.566 36.2305H119.617ZM133.797 44.1172C133.016 44.1172 132.414 43.9531 131.992 43.625C131.57 43.2969 131.359 42.8633 131.359 42.3242C131.359 42.0352 131.379 41.7852 131.418 41.5742H131.348C130.691 42.5898 130.043 43.2891 129.402 43.6719C128.762 44.0469 127.98 44.2344 127.059 44.2344C125.965 44.2344 125.09 43.9102 124.434 43.2617C123.785 42.6055 123.461 41.7656 123.461 40.7422C123.461 39.2969 123.957 38.207 124.949 37.4727C125.949 36.7305 127.566 36.3398 129.801 36.3008L132.039 36.2656C132.203 35.5234 132.285 35.0117 132.285 34.7305C132.285 33.7305 131.789 33.2305 130.797 33.2305C130.062 33.2305 129.516 33.375 129.156 33.6641C128.797 33.9453 128.551 34.3555 128.418 34.8945L125.336 34.5312C125.602 33.4062 126.199 32.5508 127.129 31.9648C128.066 31.3789 129.309 31.0859 130.855 31.0859C132.473 31.0859 133.656 31.3711 134.406 31.9414C135.164 32.5117 135.543 33.3789 135.543 34.543C135.543 34.832 135.449 35.4453 135.262 36.3828L134.43 40.5195C134.367 40.8711 134.336 41.1523 134.336 41.3633C134.336 41.5508 134.375 41.6953 134.453 41.7969C134.531 41.8984 134.621 41.9727 134.723 42.0195C134.824 42.0664 134.926 42.0977 135.027 42.1133C135.129 42.1211 135.207 42.125 135.262 42.125C135.496 42.125 135.738 42.0977 135.988 42.043L135.824 43.8594C135.496 43.9844 135.164 44.0586 134.828 44.082C134.492 44.1055 134.148 44.1172 133.797 44.1172ZM131.676 38.1055H129.777C128.863 38.1211 128.141 38.3086 127.609 38.668C127.086 39.0273 126.824 39.5352 126.824 40.1914C126.824 40.7383 126.977 41.168 127.281 41.4805C127.594 41.7852 128.012 41.9375 128.535 41.9375C129.184 41.9375 129.773 41.6875 130.305 41.1875C130.836 40.6797 131.207 40.0117 131.418 39.1836L131.676 38.1055ZM141.109 44.1875C140.141 44.1875 139.391 43.9609 138.859 43.5078C138.328 43.0469 138.062 42.3945 138.062 41.5508C138.062 40.9961 138.125 40.3828 138.25 39.7109L139.445 33.5469H137.711L138.145 31.3203H140.043L141.648 28.3438H143.711L143.148 31.3203H145.516L145.105 33.5469H142.703L141.484 39.8164C141.398 40.2539 141.355 40.6016 141.355 40.8594C141.355 41.2188 141.445 41.4883 141.625 41.668C141.812 41.8398 142.062 41.9258 142.375 41.9258C142.625 41.9258 143.047 41.875 143.641 41.7734L143.266 43.9062C142.633 44.0938 141.914 44.1875 141.109 44.1875ZM151.738 26.6094L150.812 31.3555L150.355 33.4883H150.391C150.977 32.6758 151.621 32.0742 152.324 31.6836C153.035 31.293 153.848 31.0977 154.762 31.0977C155.949 31.0977 156.844 31.3828 157.445 31.9531C158.047 32.5234 158.348 33.3477 158.348 34.4258C158.348 34.6211 158.32 34.9336 158.266 35.3633C158.211 35.7852 158.156 36.1133 158.102 36.3477L156.613 44H153.344L154.727 37.0273C154.93 36.0586 155.031 35.4141 155.031 35.0938C155.031 34.0859 154.438 33.582 153.25 33.582C152.461 33.582 151.73 33.9023 151.059 34.543C150.387 35.1836 149.965 35.9688 149.793 36.8984L148.41 44H145.105L148.457 26.6094H151.738ZM163.562 38.4219C163.508 38.7188 163.48 39.0664 163.48 39.4648C163.48 40.293 163.66 40.9297 164.02 41.375C164.387 41.8125 164.926 42.0312 165.637 42.0312C166.785 42.0312 167.617 41.3711 168.133 40.0508L171.004 40.918C170.418 42.1602 169.691 43.0234 168.824 43.5078C167.957 43.9922 166.82 44.2344 165.414 44.2344C163.75 44.2344 162.449 43.7852 161.512 42.8867C160.574 41.9805 160.105 40.7188 160.105 39.1016C160.105 37.4844 160.387 36.0703 160.949 34.8594C161.512 33.6406 162.309 32.707 163.34 32.0586C164.379 31.4102 165.578 31.0859 166.938 31.0859C168.57 31.0859 169.828 31.5078 170.711 32.3516C171.602 33.1875 172.047 34.3711 172.047 35.9023C172.047 36.6758 171.953 37.5156 171.766 38.4219H163.562ZM169 36.2305L169.035 35.5742C169.035 34.7383 168.84 34.1289 168.449 33.7461C168.066 33.3633 167.562 33.1719 166.938 33.1719C166.188 33.1719 165.555 33.4336 165.039 33.957C164.531 34.4727 164.168 35.2305 163.949 36.2305H169ZM182.617 34.0039C182.078 33.8867 181.633 33.8281 181.281 33.8281C180.32 33.8281 179.535 34.168 178.926 34.8477C178.324 35.5273 177.887 36.5703 177.613 37.9766L176.43 44H173.137L175.023 34.2734C175.211 33.3359 175.375 32.3516 175.516 31.3203H178.656L178.398 33.3359L178.305 33.9102H178.352C178.922 32.8633 179.484 32.1328 180.039 31.7188C180.594 31.2969 181.23 31.0859 181.949 31.0859C182.316 31.0859 182.719 31.1406 183.156 31.25L182.617 34.0039Z" fill="white"/>
<path d="M200.38 42.7727C200.979 42.7727 201.465 42.3148 201.465 41.75C201.465 41.1851 200.979 40.7272 200.38 40.7272C199.781 40.7272 199.295 41.1851 199.295 41.75C199.295 42.3148 199.781 42.7727 200.38 42.7727Z" fill="white"/>
<path d="M203.995 44.1363C204.595 44.1363 205.08 43.6784 205.08 43.1135C205.08 42.5487 204.595 42.0908 203.995 42.0908C203.396 42.0908 202.911 42.5487 202.911 43.1135C202.911 43.6784 203.396 44.1363 203.995 44.1363Z" fill="white"/>
<path d="M197.969 45.7273C198.568 45.7273 199.054 45.2694 199.054 44.7046C199.054 44.1397 198.568 43.6818 197.969 43.6818C197.37 43.6818 196.884 44.1397 196.884 44.7046C196.884 45.2694 197.37 45.7273 197.969 45.7273Z" fill="white"/>
<path d="M209.257 43.9091H207.322C207.194 43.9091 207.072 43.8612 206.981 43.776C206.891 43.6907 206.84 43.5751 206.84 43.4545C206.84 43.334 206.891 43.2184 206.981 43.1331C207.072 43.0479 207.194 43 207.322 43H209.257C210.267 42.9803 211.227 42.5886 211.934 41.9088C212.64 41.229 213.036 40.3152 213.036 39.3636C213.036 38.412 212.64 37.4983 211.934 36.8185C211.227 36.1387 210.267 35.7469 209.257 35.7273H208.311C208.183 35.7273 208.06 35.6794 207.97 35.5941C207.879 35.5089 207.829 35.3933 207.829 35.2727C207.844 33.602 207.156 31.9938 205.915 30.8009C204.674 29.6079 202.982 28.9276 201.21 28.9091C199.914 28.9156 198.649 29.2806 197.571 29.9589C196.493 30.6372 195.651 31.599 195.147 32.7248C195.11 32.8065 195.048 32.8761 194.97 32.925C194.891 32.9739 194.799 33 194.704 33H193.163C191.775 33.0262 190.453 33.5645 189.481 34.4994C188.509 35.4342 187.964 36.691 187.964 38C187.964 39.309 188.509 40.5658 189.481 41.5006C190.453 42.4355 191.775 42.9738 193.163 43H194.657C194.785 43 194.908 43.0479 194.998 43.1331C195.089 43.2184 195.14 43.334 195.14 43.4545C195.14 43.5751 195.089 43.6907 194.998 43.776C194.908 43.8612 194.785 43.9091 194.657 43.9091H193.163C191.519 43.8829 189.951 43.2488 188.799 42.1435C187.646 41.0382 187 39.5501 187 38C187 36.4499 187.646 34.9618 188.799 33.8565C189.951 32.7512 191.519 32.1171 193.163 32.0909H194.394C195.004 30.8718 195.968 29.8407 197.175 29.1167C198.381 28.3927 199.78 28.0056 201.21 28C203.154 28.0168 205.019 28.731 206.425 29.9975C207.831 31.264 208.672 32.9877 208.778 34.8182H209.257C210.522 34.8379 211.728 35.3254 212.616 36.1757C213.503 37.026 214 38.1709 214 39.3636C214 40.5563 213.503 41.7013 212.616 42.5516C211.728 43.4019 210.522 43.8894 209.257 43.9091Z" fill="white"/>
<path d="M201.826 48C202.425 48 202.911 47.5422 202.911 46.9773C202.911 46.4125 202.425 45.9546 201.826 45.9546C201.227 45.9546 200.741 46.4125 200.741 46.9773C200.741 47.5422 201.227 48 201.826 48Z" fill="white"/>
<path d="M21 17C20.2089 17 19.4355 16.7654 18.7777 16.3259C18.1199 15.8864 17.6072 15.2616 17.3045 14.5307C17.0017 13.7998 16.9225 12.9956 17.0769 12.2196C17.2312 11.4437 17.6122 10.731 18.1716 10.1716C18.731 9.61216 19.4437 9.2312 20.2196 9.07686C20.9956 8.92252 21.7998 9.00173 22.5307 9.30448C23.2616 9.60723 23.8864 10.1199 24.3259 10.7777C24.7654 11.4355 25 12.2089 25 13C24.9988 14.0605 24.577 15.0772 23.8271 15.8271C23.0772 16.577 22.0605 16.9988 21 17Z" fill="#FEFEFF"/>
<path d="M21.1279 7.77871C21.0324 7.77871 20.9407 7.74141 20.8731 7.67503C20.8055 7.60865 20.7676 7.51862 20.7676 7.42473V3.35398C20.7676 3.2601 20.8055 3.17007 20.8731 3.10368C20.9407 3.0373 21.0324 3 21.1279 3C21.2235 3 21.3152 3.0373 21.3828 3.10368C21.4503 3.17007 21.4883 3.2601 21.4883 3.35398V7.42473C21.4883 7.51862 21.4503 7.60865 21.3828 7.67503C21.3152 7.74141 21.2235 7.77871 21.1279 7.77871Z" fill="#FEFEFF"/>
<path d="M15.5046 13.3031H11.3604C11.2648 13.3031 11.1731 13.2658 11.1055 13.1994C11.038 13.133 11 13.043 11 12.9491C11 12.8552 11.038 12.7652 11.1055 12.6988C11.1731 12.6324 11.2648 12.5951 11.3604 12.5951H15.5046C15.6002 12.5951 15.6918 12.6324 15.7594 12.6988C15.827 12.7652 15.865 12.8552 15.865 12.9491C15.865 13.043 15.827 13.133 15.7594 13.1994C15.6918 13.2658 15.6002 13.3031 15.5046 13.3031Z" fill="#FEFEFF"/>
<path d="M30.6396 13.3031H26.4954C26.3998 13.3031 26.3081 13.2658 26.2406 13.1994C26.173 13.133 26.135 13.043 26.135 12.9491C26.135 12.8552 26.173 12.7652 26.2406 12.6988C26.3081 12.6324 26.3998 12.5951 26.4954 12.5951H30.6396C30.7352 12.5951 30.8269 12.6324 30.8944 12.6988C30.962 12.7652 31 12.8552 31 12.9491C31 13.043 30.962 13.133 30.8944 13.1994C30.8269 13.2658 30.7352 13.3031 30.6396 13.3031Z" fill="#FEFEFF"/>
<path d="M26.3821 9.43261C26.3104 9.43261 26.2402 9.41158 26.1807 9.3722C26.1212 9.33283 26.0751 9.27691 26.0481 9.2116C26.0212 9.1463 26.0147 9.07457 26.0295 9.00562C26.0443 8.93667 26.0797 8.87362 26.1312 8.82456L27.8667 7.17064C27.9353 7.10527 28.0275 7.06935 28.1231 7.07078C28.2186 7.07221 28.3097 7.11086 28.3763 7.17824C28.4428 7.24563 28.4794 7.33623 28.4779 7.4301C28.4765 7.52397 28.4371 7.61342 28.3685 7.67879L26.633 9.33271C26.5659 9.3969 26.4758 9.43275 26.3821 9.43261Z" fill="#FEFEFF"/>
<path d="M15.799 9.43261C15.7053 9.43274 15.6153 9.39689 15.5481 9.33271L13.8126 7.67879C13.7786 7.64643 13.7515 7.6078 13.7327 7.56513C13.7139 7.52246 13.7039 7.47658 13.7032 7.4301C13.7024 7.38362 13.7111 7.33744 13.7285 7.29423C13.7459 7.25102 13.7719 7.21161 13.8048 7.17824C13.8378 7.14488 13.8771 7.11821 13.9206 7.09977C13.964 7.08134 14.0107 7.07149 14.058 7.07078C14.1053 7.07007 14.1523 7.07852 14.1963 7.09566C14.2403 7.11279 14.2804 7.13827 14.3144 7.17064L16.0499 8.82456C16.1014 8.87362 16.1368 8.93667 16.1516 9.00562C16.1664 9.07457 16.1599 9.1463 16.133 9.2116C16.106 9.27691 16.0598 9.33283 16.0004 9.3722C15.9409 9.41158 15.8707 9.43261 15.799 9.43261Z" fill="#FEFEFF"/>
<path d="M14.4238 19.106C14.353 19.106 14.2838 19.0855 14.2247 19.047C14.1657 19.0086 14.1195 18.9539 14.0919 18.8899C14.0644 18.8258 14.0566 18.7552 14.0696 18.6868C14.0827 18.6184 14.1159 18.5553 14.1652 18.5054L15.9007 16.7499C15.9673 16.6825 16.0584 16.6439 16.154 16.6425C16.2496 16.6411 16.3418 16.6771 16.4104 16.7425C16.479 16.8079 16.5183 16.8974 16.5197 16.9913C16.5211 17.0852 16.4845 17.1758 16.4179 17.2431L14.6824 18.9987C14.6488 19.0327 14.6086 19.0597 14.5642 19.0781C14.5198 19.0966 14.472 19.1061 14.4238 19.106Z" fill="#FEFEFF"/>
<path d="M28.4779 19.4601C28.4298 19.4602 28.3822 19.4508 28.3379 19.4324C28.2936 19.4141 28.2535 19.3872 28.22 19.3533L26.1242 17.2438C26.0911 17.2105 26.0651 17.1712 26.0475 17.128C26.0299 17.0849 26.0212 17.0387 26.0218 16.9923C26.0223 16.9458 26.0322 16.8999 26.0509 16.8572C26.0695 16.8145 26.0965 16.7758 26.1304 16.7433C26.1643 16.7109 26.2043 16.6853 26.2482 16.668C26.2922 16.6507 26.3391 16.6422 26.3864 16.6427C26.4338 16.6433 26.4805 16.653 26.524 16.6713C26.5675 16.6896 26.6069 16.7162 26.6399 16.7494L28.7358 18.859C28.7853 18.9088 28.8188 18.9719 28.832 19.0403C28.8452 19.1087 28.8375 19.1795 28.81 19.2436C28.7825 19.3078 28.7363 19.3626 28.6772 19.4011C28.6181 19.4396 28.5488 19.4601 28.4779 19.4601Z" fill="#FEFEFF"/>
<path d="M21.1279 23C21.0324 23 20.9407 22.9627 20.8731 22.8963C20.8055 22.8299 20.7676 22.7399 20.7676 22.646V18.5752C20.7676 18.4814 20.8055 18.3913 20.8731 18.3249C20.9407 18.2586 21.0324 18.2213 21.1279 18.2213C21.2235 18.2213 21.3152 18.2586 21.3828 18.3249C21.4503 18.3913 21.4883 18.4814 21.4883 18.5752V22.646C21.4883 22.7399 21.4503 22.8299 21.3828 22.8963C21.3152 22.9627 21.2235 23 21.1279 23Z" fill="#FEFEFF"/>
</svg>
